<svg viewBox="0 0 2000 1400" xmlns="http://www.w3.org/2000/svg"><mask id="b" x="0" y="0" width="2000" height="1400"><path fill="url(#a)" d="M0 0h2000v1400H0z"/></mask><path fill="#fff" d="M0 0h2000v1400H0z"/><g style="transform-origin:center center" stroke="#ddd" stroke-width="2" mask="url(#b)"><path fill="none" d="M0 0h100v100H0z"/><path fill="#ddddddec" d="M100 0h100v100H100z"/><path fill="none" d="M200 0h100v100H200zM300 0h100v100H300zM400 0h100v100H400z"/><path fill="#dddddd12" d="M500 0h100v100H500z"/><path fill="none" d="M600 0h100v100H600zM700 0h100v100H700zM800 0h100v100H800zM900 0h100v100H900zM1000 0h100v100h-100z"/><path fill="#dddddd44" d="M1100 0h100v100h-100z"/><path fill="#dddddd3d" d="M1200 0h100v100h-100z"/><path fill="#dddddd7d" d="M1300 0h100v100h-100z"/><path fill="#dddddd39" d="M1400 0h100v100h-100z"/><path fill="#dddddd1d" d="M1500 0h100v100h-100z"/><path fill="none" d="M1600 0h100v100h-100zM1700 0h100v100h-100zM1800 0h100v100h-100zM1900 0h100v100h-100zM0 100h100v100H0zM100 100h100v100H100zM200 100h100v100H200z"/><path fill="#dddddd3e" d="M300 100h100v100H300z"/><path fill="#ddddddea" d="M400 100h100v100H400z"/><path fill="#ddddddf2" d="M500 100h100v100H500z"/><path fill="none" d="M600 100h100v100H600zM700 100h100v100H700zM800 100h100v100H800zM900 100h100v100H900z"/><path fill="#ddddddb7" d="M1000 100h100v100h-100z"/><path fill="none" d="M1100 100h100v100h-100z"/><path fill="#ddddddf8" d="M1200 100h100v100h-100z"/><path fill="none" d="M1300 100h100v100h-100zM1400 100h100v100h-100zM1500 100h100v100h-100z"/><path fill="#dddddd69" d="M1600 100h100v100h-100z"/><path fill="none" d="M1700 100h100v100h-100zM1800 100h100v100h-100zM1900 100h100v100h-100z"/><path fill="#ddddddd0" d="M0 200h100v100H0z"/><path fill="none" d="M100 200h100v100H100z"/><path fill="#ddddddce" d="M200 200h100v100H200z"/><path fill="#dddddd54" d="M300 200h100v100H300z"/><path fill="#dddddd41" d="M400 200h100v100H400z"/><path fill="#dddddda5" d="M500 200h100v100H500z"/><path fill="none" d="M600 200h100v100H600zM700 200h100v100H700zM800 200h100v100H800zM900 200h100v100H900zM1000 200h100v100h-100zM1100 200h100v100h-100z"/><path fill="#ddddddaa" d="M1200 200h100v100h-100z"/><path fill="none" d="M1300 200h100v100h-100zM1400 200h100v100h-100zM1500 200h100v100h-100z"/><path fill="#dddddd32" d="M1600 200h100v100h-100z"/><path fill="#ddddddc0" d="M1700 200h100v100h-100z"/><path fill="none" d="M1800 200h100v100h-100zM1900 200h100v100h-100zM0 300h100v100H0zM100 300h100v100H100zM200 300h100v100H200zM300 300h100v100H300zM400 300h100v100H400zM500 300h100v100H500z"/><path fill="#dddddd2f" d="M600 300h100v100H600z"/><path fill="none" d="M700 300h100v100H700zM800 300h100v100H800zM900 300h100v100H900zM1000 300h100v100h-100z"/><path fill="#dddddd8d" d="M1100 300h100v100h-100z"/><path fill="#ddddddec" d="M1200 300h100v100h-100z"/><path fill="none" d="M1300 300h100v100h-100zM1400 300h100v100h-100zM1500 300h100v100h-100z"/><path fill="#ddddddee" d="M1600 300h100v100h-100z"/><path fill="none" d="M1700 300h100v100h-100z"/><path fill="#ddddddc8" d="M1800 300h100v100h-100z"/><path fill="#dddddd81" d="M1900 300h100v100h-100z"/><path fill="#ddddddf1" d="M0 400h100v100H0z"/><path fill="#dddddd11" d="M100 400h100v100H100z"/><path fill="#dddddd53" d="M200 400h100v100H200z"/><path fill="none" d="M300 400h100v100H300zM400 400h100v100H400zM500 400h100v100H500z"/><path fill="#dddddd05" d="M600 400h100v100H600z"/><path fill="none" d="M700 400h100v100H700z"/><path fill="#dddddddf" d="M800 400h100v100H800z"/><path fill="none" d="M900 400h100v100H900z"/><path fill="#dddddd5d" d="M1000 400h100v100h-100z"/><path fill="none" d="M1100 400h100v100h-100z"/><path fill="#dddddd0a" d="M1200 400h100v100h-100z"/><path fill="none" d="M1300 400h100v100h-100z"/><path fill="#dddddd2e" d="M1400 400h100v100h-100z"/><path fill="none" d="M1500 400h100v100h-100zM1600 400h100v100h-100zM1700 400h100v100h-100z"/><path fill="#dddddd7a" d="M1800 400h100v100h-100z"/><path fill="none" d="M1900 400h100v100h-100z"/><path fill="#dddddda5" d="M0 500h100v100H0z"/><path fill="none" d="M100 500h100v100H100zM200 500h100v100H200zM300 500h100v100H300zM400 500h100v100H400z"/><path fill="#dddddd4d" d="M500 500h100v100H500z"/><path fill="#dddddde6" d="M600 500h100v100H600z"/><path fill="none" d="M700 500h100v100H700zM800 500h100v100H800z"/><path fill="#dddddd19" d="M900 500h100v100H900z"/><path fill="none" d="M1000 500h100v100h-100zM1100 500h100v100h-100z"/><path fill="#dddddda7" d="M1200 500h100v100h-100z"/><path fill="none" d="M1300 500h100v100h-100zM1400 500h100v100h-100zM1500 500h100v100h-100zM1600 500h100v100h-100zM1700 500h100v100h-100z"/><path fill="#dddddd04" d="M1800 500h100v100h-100z"/><path fill="#dddddd85" d="M1900 500h100v100h-100z"/><path fill="none" d="M0 600h100v100H0zM100 600h100v100H100zM200 600h100v100H200zM300 600h100v100H300zM400 600h100v100H400zM500 600h100v100H500z"/><path fill="#dddddd25" d="M600 600h100v100H600z"/><path fill="none" d="M700 600h100v100H700zM800 600h100v100H800zM900 600h100v100H900z"/><path fill="#dddddd34" d="M1000 600h100v100h-100z"/><path fill="#dddddd59" d="M1100 600h100v100h-100z"/><path fill="#ddddddda" d="M1200 600h100v100h-100z"/><path fill="none" d="M1300 600h100v100h-100zM1400 600h100v100h-100z"/><path fill="#dddddd3b" d="M1500 600h100v100h-100z"/><path fill="#dddddd8e" d="M1600 600h100v100h-100z"/><path fill="none" d="M1700 600h100v100h-100zM1800 600h100v100h-100zM1900 600h100v100h-100zM0 700h100v100H0z"/><path fill="#ddddddae" d="M100 700h100v100H100z"/><path fill="none" d="M200 700h100v100H200zM300 700h100v100H300zM400 700h100v100H400z"/><path fill="#ddddddab" d="M500 700h100v100H500z"/><path fill="none" d="M600 700h100v100H600z"/><path fill="#dddddd61" d="M700 700h100v100H700z"/><path fill="none" d="M800 700h100v100H800zM900 700h100v100H900zM1000 700h100v100h-100zM1100 700h100v100h-100z"/><path fill="#dddddd38" d="M1200 700h100v100h-100z"/><path fill="none" d="M1300 700h100v100h-100zM1400 700h100v100h-100zM1500 700h100v100h-100zM1600 700h100v100h-100zM1700 700h100v100h-100zM1800 700h100v100h-100z"/><path fill="#dddddd2d" d="M1900 700h100v100h-100z"/><path fill="none" d="M0 800h100v100H0zM100 800h100v100H100z"/><path fill="#dddddd6d" d="M200 800h100v100H200z"/><path fill="none" d="M300 800h100v100H300z"/><path fill="#dddddd82" d="M400 800h100v100H400z"/><path fill="none" d="M500 800h100v100H500z"/><path fill="#dddddd39" d="M600 800h100v100H600z"/><path fill="#dddddd89" d="M700 800h100v100H700z"/><path fill="none" d="M800 800h100v100H800zM900 800h100v100H900zM1000 800h100v100h-100z"/><path fill="#dddddd3f" d="M1100 800h100v100h-100z"/><path fill="none" d="M1200 800h100v100h-100z"/><path fill="#dddddd61" d="M1300 800h100v100h-100z"/><path fill="#dddddd0b" d="M1400 800h100v100h-100z"/><path fill="none" d="M1500 800h100v100h-100zM1600 800h100v100h-100zM1700 800h100v100h-100z"/><path fill="#ddddddc3" d="M1800 800h100v100h-100z"/><path fill="#dddddd08" d="M1900 800h100v100h-100z"/><path fill="#ddddddef" d="M0 900h100v100H0z"/><path fill="#dddddd6a" d="M100 900h100v100H100z"/><path fill="none" d="M200 900h100v100H200zM300 900h100v100H300zM400 900h100v100H400zM500 900h100v100H500z"/><path fill="#dddddd64" d="M600 900h100v100H600z"/><path fill="#dddddd3f" d="M700 900h100v100H700z"/><path fill="#dddddd75" d="M800 900h100v100H800z"/><path fill="none" d="M900 900h100v100H900zM1000 900h100v100h-100z"/><path fill="#dddddd84" d="M1100 900h100v100h-100z"/><path fill="none" d="M1200 900h100v100h-100zM1300 900h100v100h-100zM1400 900h100v100h-100z"/><path fill="#dddddd57" d="M1500 900h100v100h-100z"/><path fill="none" d="M1600 900h100v100h-100z"/><path fill="#dddddd8d" d="M1700 900h100v100h-100z"/><path fill="none" d="M1800 900h100v100h-100zM1900 900h100v100h-100z"/><path fill="#dddddd5d" d="M0 1000h100v100H0z"/><path fill="#dddddde3" d="M100 1000h100v100H100z"/><path fill="none" d="M200 1000h100v100H200zM300 1000h100v100H300zM400 1000h100v100H400z"/><path fill="#dddddd4d" d="M500 1000h100v100H500z"/><path fill="#dddddd36" d="M600 1000h100v100H600z"/><path fill="#dddddd34" d="M700 1000h100v100H700z"/><path fill="none" d="M800 1000h100v100H800zM900 1000h100v100H900zM1000 1000h100v100h-100zM1100 1000h100v100h-100zM1200 1000h100v100h-100zM1300 1000h100v100h-100z"/><path fill="#ddddddab" d="M1400 1000h100v100h-100z"/><path fill="none" d="M1500 1000h100v100h-100zM1600 1000h100v100h-100zM1700 1000h100v100h-100z"/><path fill="#ddddddb8" d="M1800 1000h100v100h-100z"/><path fill="none" d="M1900 1000h100v100h-100z"/><path fill="#dddddd39" d="M0 1100h100v100H0z"/><path fill="#dddddd22" d="M100 1100h100v100H100z"/><path fill="none" d="M200 1100h100v100H200zM300 1100h100v100H300zM400 1100h100v100H400zM500 1100h100v100H500zM600 1100h100v100H600zM700 1100h100v100H700zM800 1100h100v100H800zM900 1100h100v100H900zM1000 1100h100v100h-100zM1100 1100h100v100h-100zM1200 1100h100v100h-100z"/><path fill="#ddddddc5" d="M1300 1100h100v100h-100z"/><path fill="none" d="M1400 1100h100v100h-100z"/><path fill="#dddddda9" d="M1500 1100h100v100h-100z"/><path fill="none" d="M1600 1100h100v100h-100zM1700 1100h100v100h-100zM1800 1100h100v100h-100zM1900 1100h100v100h-100zM0 1200h100v100H0zM100 1200h100v100H100zM200 1200h100v100H200zM300 1200h100v100H300zM400 1200h100v100H400z"/><path fill="#ddddddde" d="M500 1200h100v100H500z"/><path fill="none" d="M600 1200h100v100H600zM700 1200h100v100H700z"/><path fill="#dddddda8" d="M800 1200h100v100H800z"/><path fill="none" d="M900 1200h100v100H900zM1000 1200h100v100h-100z"/><path fill="#dddddd3f" d="M1100 1200h100v100h-100z"/><path fill="none" d="M1200 1200h100v100h-100zM1300 1200h100v100h-100z"/><path fill="#dddddd90" d="M1400 1200h100v100h-100z"/><path fill="none" d="M1500 1200h100v100h-100zM1600 1200h100v100h-100zM1700 1200h100v100h-100z"/><path fill="#ddddddb4" d="M1800 1200h100v100h-100z"/><path fill="#ddddddae" d="M1900 1200h100v100h-100z"/><path fill="none" d="M0 1300h100v100H0z"/><path fill="#dddddd24" d="M100 1300h100v100H100z"/><path fill="#dddddd06" d="M200 1300h100v100H200z"/><path fill="none" d="M300 1300h100v100H300z"/><path fill="#ddddddb7" d="M400 1300h100v100H400z"/><path fill="none" d="M500 1300h100v100H500z"/><path fill="#dddddd75" d="M600 1300h100v100H600z"/><path fill="#dddddd58" d="M700 1300h100v100H700z"/><path fill="none" d="M800 1300h100v100H800zM900 1300h100v100H900z"/><path fill="#ddddddc0" d="M1000 1300h100v100h-100z"/><path fill="none" d="M1100 1300h100v100h-100zM1200 1300h100v100h-100zM1300 1300h100v100h-100z"/><path fill="#dddddd5f" d="M1400 1300h100v100h-100z"/><path fill="#ddddddd6" d="M1500 1300h100v100h-100z"/><path fill="#dddddde6" d="M1600 1300h100v100h-100z"/><path fill="none" d="M1700 1300h100v100h-100zM1800 1300h100v100h-100z"/><path fill="#dddddd05" d="M1900 1300h100v100h-100z"/></g><defs><radialGradient id="a"><stop offset="0" stop-color="#fff"/><stop offset="1" stop-color="#fff" stop-opacity="0"/></radialGradient></defs></svg>