<svg width="131" height="247" viewBox="0 0 131 247" fill="none" xmlns="http://www.w3.org/2000/svg">
<circle cx="68.5" cy="48.5" r="24" stroke="white" stroke-width="3"/>
<circle cx="68.5" cy="48.5" r="9" stroke="white" stroke-width="3"/>
<path d="M7 241.5L18.5 232L69.5 74.5L60 71L55.5 68.5L51.5 65L2.5 227L7 241.5ZM7 241.5L5.5 246.5M125 238.5L129 227L85.5 66L78 70.5L69.5 72.5L112.5 232L125 238.5ZM125 238.5L126.5 243.5M62.5002 25.5C62.3335 20 62.1002 8.30001 62.5002 5.50001C63.0002 2.00001 73.5 1.00001 76.5 4.50001V25.5H62.5002Z" stroke="white" stroke-width="3"/>
</svg>
