<svg width="138" height="282" viewBox="0 0 138 282" fill="none" xmlns="http://www.w3.org/2000/svg">
<path d="M3 265.5L84.5 2C108.1 2 128 13 135 18.5L55 278C31.4 284 10.5 272.167 3 265.5Z" stroke="white" stroke-width="4"/>
<path d="M109 32.5L128 40.5" stroke="white"/>
<path d="M121 31L130 35" stroke="white"/>
<path d="M123 25L132 29" stroke="white"/>
<path d="M114 51L123 55" stroke="white"/>
<path d="M116 45L125 49" stroke="white"/>
<path d="M106 76L115 80" stroke="white"/>
<path d="M108 70L117 74" stroke="white"/>
<path d="M99 100L108 104" stroke="white"/>
<path d="M101 94L110 98" stroke="white"/>
<path d="M92 124L101 128" stroke="white"/>
<path d="M94 118L103 122" stroke="white"/>
<path d="M85 150L94 154" stroke="white"/>
<path d="M87 144L96 148" stroke="white"/>
<path d="M77 174L86 178" stroke="white"/>
<path d="M79 168L88 172" stroke="white"/>
<path d="M69 198L78 202" stroke="white"/>
<path d="M71 192L80 196" stroke="white"/>
<path d="M61 222L70 226" stroke="white"/>
<path d="M63 216L72 220" stroke="white"/>
<path d="M54 246L63 250" stroke="white"/>
<path d="M56 240L65 244" stroke="white"/>
<path d="M102 57L121 65" stroke="white"/>
<path d="M95 81.5L114 89.5" stroke="white"/>
<path d="M87 106L106 114" stroke="white"/>
<path d="M80 130.5L99 138.5" stroke="white"/>
<path d="M72 155L91 163" stroke="white"/>
<path d="M64 179.5L83 187.5" stroke="white"/>
<path d="M57 204L76 212" stroke="white"/>
<path d="M49 228.5L68 236.5" stroke="white"/>
</svg>
