<svg width="54" height="227" viewBox="0 0 54 227" fill="none" xmlns="http://www.w3.org/2000/svg">
<path d="M15.5 79C-16.5 27.8 15.5 -1.99998 41.5 3.00005C43.4641 3.37775 46.3334 4.33338 47.5 5.00005C43.5 6.20005 41.1667 12.8334 40.5 16C54.5 30.8 48 58.8334 43 71L40.5 82.5C45 130.167 53.3 225.2 50.5 224C47.7 222.8 44.3333 218.167 43 216L15.5 79Z" stroke="white" stroke-width="4"/>
<path d="M41.5 76.5C33.1 81.3 20.5 80.1667 15.5 79L16.5 84C23.7 87.2 35.6667 84.5 40.5 82.5L41.5 76.5Z" stroke="white" stroke-width="3"/>
<path d="M29.5002 11C16.5001 16.5 10.9596 32.6267 16.0001 35C21.9574 37.8049 24.5001 20 29.5002 11Z" stroke="white" stroke-width="2" stroke-linecap="round"/>
</svg>
