<svg width="203" height="120" viewBox="0 0 203 120" fill="none" xmlns="http://www.w3.org/2000/svg">
<path d="M29.2862 30.7923L36.9982 4L60.4695 20.7452L94 16.3914L79.5819 42.5139L90.3116 69.641C86.0197 69.1052 71.0875 65.6222 64.1578 63.9477L29.2862 93.7541C23.1165 96.7012 28.7273 72.4319 32.3039 59.9288C32.3039 58.3213 12.4091 53.0075 2.46175 50.5516C-1.29367 48.1403 18.7799 36.374 29.2862 30.7923Z" stroke="white" stroke-width="4"/>
<path d="M117.236 39.9915L121.26 26L133.506 34.7447L151 32.4711L143.478 46.1128L149.076 60.2792C146.836 59.9994 139.046 58.1805 135.43 57.306L117.236 72.8716C114.017 74.4106 116.945 61.7367 118.811 55.2073C118.811 54.3678 108.431 51.5928 103.241 50.3103C101.282 49.051 111.755 42.9064 117.236 39.9915Z" stroke="white" stroke-width="4"/>
<path d="M177.194 66.9308L179.793 58L187.702 63.5817L199 62.1305L194.142 70.838L197.757 79.8803C196.311 79.7017 191.279 78.5407 188.944 77.9826L177.194 87.918C175.115 88.9004 177.006 80.8106 178.211 76.643C178.211 76.1071 171.507 74.3358 168.156 73.5172C166.89 72.7134 173.654 68.7913 177.194 66.9308Z" stroke="white" stroke-width="4"/>
<path d="M146.194 96.9308L148.793 88L156.702 93.5817L168 92.1305L163.142 100.838L166.757 109.88C165.311 109.702 160.279 108.541 157.944 107.983L146.194 117.918C144.115 118.9 146.006 110.811 147.211 106.643C147.211 106.107 140.507 104.336 137.156 103.517C135.89 102.713 142.654 98.7913 146.194 96.9308Z" stroke="white" stroke-width="4"/>
</svg>
